<?xml version="1.0" encoding="UTF-8"?>
<svg width="24px" height="24px" viewBox="0 0 24 24" version="1.1" xmlns="http://www.w3.org/2000/svg">
    <g stroke="none" stroke-width="1" fill="none" fill-rule="evenodd">
        <path d="M17.6,4.32 C16.04,4.32 14.3,4.9 12.5,6.1 C10.7,4.9 8.96,4.32 7.4,4.32 C4.4,4.32 2,6.72 2,9.72 C2,14.22 5.5,17.92 12.5,22.32 C19.5,17.92 23,14.22 23,9.72 C23,6.72 20.6,4.32 17.6,4.32 Z" fill="#ffb380" fill-rule="nonzero"></path>
        <path d="M12.5,6.1 C10.7,4.9 8.96,4.32 7.4,4.32 C4.4,4.32 2,6.72 2,9.72 C2,14.22 5.5,17.92 12.5,22.32 L12.5,6.1 Z" fill="#ff6a00" fill-rule="nonzero"></path>
    </g>
</svg>
